<svg xmlns="http://www.w3.org/2000/svg" xmlns:xlink="http://www.w3.org/1999/xlink" width="12" height="13" version="1.1"><defs><radialGradient id="grad0" cx="5.6" cy="10.99" r="15.34" gradientTransform="matrix(1 0 0 1 3 0)" gradientUnits="userSpaceOnUse"><stop offset=".16" stop-color="#ff8e8e"/><stop offset="1" stop-color="red"/></radialGradient><radialGradient id="grad1" cx="5.6" cy="10.99" r="15.34" gradientTransform="matrix(1 0 0 1 3 0)" gradientUnits="userSpaceOnUse"><stop offset=".16" stop-color="#00de00"/><stop offset="1" stop-color="green"/></radialGradient><radialGradient id="grad2" cx="5.6" cy="10.99" r="15.34" gradientTransform="matrix(1 0 0 1 3 0)" gradientUnits="userSpaceOnUse"><stop offset=".16" stop-color="#fff"/><stop offset="1" stop-color="#999"/></radialGradient></defs><g transform="matrix(1 0 0 1 -1 0)"><g id="deleted"><g><path fill="url(#grad0)" fill-rule="evenodd" stroke="none" d="M9 1 L9 6 L13 6 L13 12 L5 12 L5 1 Z" transform="matrix(1 0 0 1 1 0) matrix(1 0 0 1 -3 0)"/></g><g><path fill="#fff" fill-rule="evenodd" stroke="none" d="M10 1.5 L13 5 L10 5 Z" transform="matrix(1 0 0 1 1 0) matrix(1 0 0 1 -3 0)"/></g><g><path fill="#c00000" fill-rule="evenodd" stroke="none" d="M9 1 L9 6 L13 6 L13 12 L5 12 L5 1 Z M10 1.5 L13 5 L10 5 Z M9 0 L10 0 L14 4.5 L14 5 L14 6 L14 13 L4 13 L4 0 Z" transform="matrix(1 0 0 1 1 0) matrix(1 0 0 1 -3 0)"/></g></g><g id="empty"><g><path fill="url(#grad1)" fill-rule="evenodd" stroke="none" d="M9 1 L9 6 L13 6 L13 12 L5 12 L5 1 Z" transform="matrix(1 0 0 1 1 0) matrix(1 0 0 1 -3 0)"/></g><g><path fill="#fff" fill-rule="evenodd" stroke="none" d="M10 1.5 L13 5 L10 5 Z" transform="matrix(1 0 0 1 1 0) matrix(1 0 0 1 -3 0)"/></g><g><path fill="#005e00" fill-rule="evenodd" stroke="none" d="M9 1 L9 6 L13 6 L13 12 L5 12 L5 1 Z M10 1.5 L13 5 L10 5 Z M9 0 L10 0 L14 4.5 L14 5 L14 6 L14 13 L4 13 L4 0 Z" transform="matrix(1 0 0 1 1 0) matrix(1 0 0 1 -3 0)"/></g></g><g id="new"><g><path fill="url(#grad2)" fill-rule="evenodd" stroke="none" d="M9 1 L9 6 L13 6 L13 12 L5 12 L5 1 Z" transform="matrix(1 0 0 1 1 0) matrix(1 0 0 1 -3 0)"/></g><g><path fill="#fff" fill-rule="evenodd" stroke="none" d="M10 1.5 L13 5 L10 5 Z" transform="matrix(1 0 0 1 1 0) matrix(1 0 0 1 -3 0)"/></g><g><path fill="#5e5e5e" fill-rule="evenodd" stroke="none" d="M9 1 L9 6 L13 6 L13 12 L5 12 L5 1 Z M10 1.5 L13 5 L10 5 Z M9 0 L10 0 L14 4.5 L14 5 L14 6 L14 13 L4 13 L4 0 Z" transform="matrix(1 0 0 1 1 0) matrix(1 0 0 1 -3 0)"/></g></g></g></svg>